PathFileType	4	(X/Y/Z)	TRC_standard
DataRate	CameraRate	NumFrames	NumMarkers	Units	OrigDataRate	OrigDataStartFrame	OrigNumFrames
100.00	100.00	       9	33	mm	100.00	1	       2234
Frame#	Time	T10			C7			CLAV			RACR1			LACR1			RPSI			LPSI			RASI			LASI			LTH2			LTH1			RTH2			RTH3			RTH1			RLFC			RTB1			RTB3			RTB2			LLFC			LTB1			LTB3			LTB2			LLMAL			LMMAL			RLMAL			RCAL			RMT5			RMT1			LMT5			LMT1			LTH3			LCAL			LToe			
		X1	Y1	Z1	X2	Y2	Z2	X3	Y3	Z3	X4	Y4	Z4	X5	Y5	Z5	X6	Y6	Z6	X7	Y7	Z7	X8	Y8	Z8	X9	Y9	Z9	X10	Y10	Z10	X11	Y11	Z11	X12	Y12	Z12	X13	Y13	Z13	X14	Y14	Z14	X15	Y15	Z15	X16	Y16	Z16	X17	Y17	Z17	X18	Y18	Z18	X19	Y19	Z19	X20	Y20	Z20	X21	Y21	Z21	X22	Y22	Z22	X23	Y23	Z23	X24	Y24	Z24	X25	Y25	Z25	X26	Y26	Z26	X27	Y27	Z27	X28	Y28	Z28	X29	Y29	Z29	X30	Y30	Z30	X31	Y31	Z31	X32	Y32	Z32	X33	Y33	Z33	
1	0.000000	796.208130	1238.427002	-820.664001	803.463806	1496.492188	-697.506226	802.760864	1336.923706	-600.739807	642.739380	1453.320068	-675.185303	977.327942	1434.736450	-680.598022	725.543152	1019.886780	-884.497070	813.296509	1027.350220	-881.379517	646.274841	993.575317	-654.192322	900.322815	989.105103	-643.265320	931.791992	708.042969	-703.036560	925.777039	854.428162	-657.508850	626.268555	739.179443	-590.982727	585.930176	798.045715	-643.128723	658.764160	848.573364	-617.955933	606.919556	519.545593	-621.108887	641.795593	403.518463	-613.204895	622.483887	344.645538	-671.246277	644.834717	292.895508	-684.339783	908.484680	501.959106	-790.034790	851.827576	386.629761	-773.628357	880.948608	322.138580	-802.295166	836.986206	271.528015	-806.949341	857.889282	84.316246	-897.556030	817.576599	46.520962	-960.888672	635.648682	140.715805	-812.704102	684.540710	121.429619	-881.302307	626.148926	65.274284	-727.837463	699.358643	60.108494	-699.161316	870.916626	40.726242	-782.637695	794.565979	52.746307	-755.895935	0.000000	0.000000	0.000000	0.000000	0.000000	0.000000	0.000000	0.000000	0.000000	
2	0.010000	796.229309	1238.463257	-821.034485	803.293518	1496.352783	-697.625916	802.620605	1336.738281	-600.992432	642.615234	1453.091675	-675.494507	977.189758	1434.680420	-680.622253	725.340637	1020.002197	-884.976746	813.085083	1027.435181	-881.912476	646.280457	993.591858	-654.646667	900.412537	988.887451	-643.917908	931.516602	707.819580	-704.163208	925.592041	854.078613	-658.578857	626.543335	739.533997	-590.973328	585.984863	798.223755	-643.184082	658.777771	848.849731	-618.252075	607.424316	519.867798	-619.929871	642.440491	404.225739	-610.098511	622.822388	344.398376	-666.572144	645.146118	292.455078	-678.941101	908.389282	501.952057	-791.906555	851.689575	386.603363	-775.972778	880.815186	322.195770	-804.776367	836.856567	271.567871	-809.492004	857.885803	84.705635	-900.561768	817.589233	47.051281	-963.797180	635.498718	138.202606	-804.801270	684.244141	117.618027	-873.148315	625.945313	64.675163	-719.005432	699.152588	59.865555	-690.308167	870.800903	40.754303	-785.438232	794.507874	52.712410	-758.862671	0.000000	0.000000	0.000000	0.000000	0.000000	0.000000	0.000000	0.000000	0.000000	
3	0.020000	796.229797	1238.494141	-821.442749	803.064819	1496.183350	-697.747559	802.434937	1336.515747	-601.268372	642.441162	1452.812378	-675.834900	977.002014	1434.612183	-680.638367	725.085999	1020.133728	-885.517151	812.819641	1027.534180	-882.515381	646.275085	993.598572	-655.154053	900.505066	988.626099	-644.657410	931.184570	707.560486	-705.521118	925.367493	853.661804	-659.825867	626.858215	739.923401	-590.980957	586.037781	798.411194	-643.250061	658.784912	849.152100	-618.586365	608.007507	520.226196	-618.578735	643.193359	405.064484	-606.453491	623.223877	344.124847	-661.048157	645.521729	291.976624	-672.511536	908.267395	501.962646	-794.160828	851.521179	386.587769	-778.793274	880.656311	322.283539	-807.777893	836.701416	271.637482	-812.576355	857.874878	85.203217	-904.234131	817.597961	47.740948	-967.406555	635.340088	135.277267	-795.196838	683.903809	113.132263	-863.195496	625.759705	64.071945	-708.265076	698.965942	59.716721	-679.573120	870.661255	40.785538	-788.957520	794.434143	52.669365	-762.549561	0.000000	0.000000	0.000000	0.000000	0.000000	0.000000	0.000000	0.000000	0.000000	
4	0.030000	796.139160	1238.489990	-821.864807	802.664734	1495.944458	-697.832153	802.118469	1336.212280	-601.543884	642.209839	1452.483398	-676.190247	976.758667	1434.532104	-680.641174	724.697266	1020.286072	-886.122437	812.415649	1027.656982	-883.199951	646.223206	993.559570	-655.705017	900.574829	988.269714	-645.502808	930.800049	707.272705	-707.093201	925.105408	853.184082	-661.219360	627.203369	740.328918	-591.012390	586.083252	798.595398	-643.325134	658.782104	849.465454	-618.946106	608.652954	520.605164	-617.097229	644.036438	406.019623	-602.349060	623.681396	343.837097	-654.779724	645.957336	291.485107	-665.155640	908.117615	501.998016	-796.771301	851.323425	386.589264	-782.055908	880.474548	322.408051	-811.269714	836.522949	271.744232	-816.174500	857.854370	85.814117	-908.548950	817.600403	48.601032	-971.711365	635.183533	132.013641	-783.976685	683.531189	108.067108	-851.517090	625.617065	63.516235	-695.711243	698.824463	59.717987	-667.062195	870.499573	40.818607	-793.203674	794.344116	52.616955	-766.953064	0.000000	0.000000	0.000000	0.000000	0.000000	0.000000	0.000000	0.000000	0.000000	
5	0.040000	796.056641	1238.486816	-822.256653	802.296021	1495.723877	-697.911255	801.826660	1335.931763	-601.799561	641.914917	1452.108398	-676.542542	976.454956	1434.441040	-680.625183	724.338501	1020.426880	-886.682922	812.042786	1027.770264	-883.833801	646.175598	993.524109	-656.215637	900.639771	987.940247	-646.286011	930.369507	706.965149	-708.852112	924.808777	852.654114	-662.721436	627.567200	740.729858	-591.073364	586.115540	798.763123	-643.407043	658.765808	849.773132	-619.316345	609.341003	520.987061	-615.534485	644.947266	407.070648	-597.886230	624.185425	343.548279	-647.906494	646.446167	291.007507	-657.019348	907.939453	502.065002	-799.697815	851.098450	386.613983	-785.709656	880.273438	322.574860	-815.203308	836.324402	271.895020	-820.239319	857.822021	86.540314	-913.458008	817.594299	49.637760	-976.678772	635.041565	128.504196	-771.295044	683.141174	102.547478	-838.258423	625.543701	63.061798	-681.516602	698.754456	59.924572	-652.958679	870.318542	40.852032	-798.154663	794.237976	52.555416	-772.041504	0.000000	0.000000	0.000000	0.000000	0.000000	0.000000	0.000000	0.000000	0.000000	
6	0.050000	795.927551	1238.463623	-822.626282	801.855896	1495.480103	-697.962524	801.480896	1335.625732	-602.034851	641.551392	1451.691162	-676.873779	976.087158	1434.340210	-680.585205	723.929138	1020.568420	-887.236938	811.617920	1027.887939	-884.465332	646.104187	993.464661	-656.711609	900.686096	987.580627	-647.070190	929.900696	706.647339	-710.764221	924.481384	852.081482	-664.291870	627.937866	741.105896	-591.167908	586.129150	798.901367	-643.492676	658.732727	850.058960	-619.681274	610.051575	521.354370	-613.940125	645.902222	408.194611	-593.172668	624.725769	343.270874	-640.580994	646.980347	290.569336	-648.267456	907.732727	502.169708	-802.893738	850.848816	386.667419	-789.695801	880.056702	322.788574	-819.521240	836.109375	272.095825	-824.713989	857.776245	87.381516	-918.898987	817.577942	50.853203	-982.255859	634.927246	124.847313	-757.348389	682.751038	96.711006	-823.611511	625.564392	62.758179	-665.903259	698.780579	60.385246	-637.493103	870.121521	40.884380	-803.764038	794.116150	52.485409	-777.763062	0.000000	0.000000	0.000000	0.000000	0.000000	0.000000	0.000000	0.000000	0.000000	
7	0.060000	795.744812	1238.416626	-822.955688	801.341614	1495.215576	-697.977295	801.079468	1335.298340	-602.236572	641.115417	1451.236084	-677.167542	975.652710	1434.230347	-680.516663	723.470703	1020.705566	-887.763367	811.142761	1028.006714	-885.071655	646.005249	993.377502	-657.171936	900.707275	987.195496	-647.828552	929.402039	706.328613	-712.792664	924.126709	851.475464	-665.892029	628.304199	741.439026	-591.297668	586.119324	798.998840	-643.577759	658.680115	850.308655	-620.025574	610.765686	521.690918	-612.359863	646.878479	409.368011	-588.312744	625.292236	343.015381	-632.954468	647.551392	290.192352	-639.068054	907.497559	502.317078	-806.311035	850.577209	386.753876	-793.954773	879.828064	323.052795	-824.163635	835.881775	272.351410	-829.538574	857.715942	88.335793	-924.803650	817.550171	52.245975	-988.376831	634.853577	121.138550	-742.357056	682.379578	90.695984	-807.796692	625.701050	62.646351	-649.122192	698.923889	61.138454	-620.922241	869.912231	40.914440	-809.967224	793.979736	52.407978	-784.052246	0.000000	0.000000	0.000000	0.000000	0.000000	0.000000	0.000000	0.000000	0.000000	
8	0.070000	795.502686	1238.342285	-823.228516	800.751709	1494.933105	-697.947754	800.621155	1334.953613	-602.392517	640.604370	1450.747681	-677.409607	975.149841	1434.112793	-680.415222	722.964966	1020.833435	-888.242493	810.619324	1028.123169	-885.631592	645.875427	993.259216	-657.577209	900.697510	986.789490	-648.536560	928.881531	706.017578	-714.900024	923.747864	850.844482	-667.486755	628.656494	741.714294	-591.461670	586.082092	799.046082	-643.657349	658.605713	850.510254	-620.334656	611.466675	521.982605	-610.832458	647.855591	410.568268	-583.401001	625.875610	342.789490	-625.168030	648.151123	289.893005	-629.582703	907.234314	502.510590	-809.903625	850.286194	386.876312	-798.429810	879.590881	323.369965	-829.072632	835.645142	272.665192	-834.654419	857.640808	89.400185	-931.102417	817.510742	53.812000	-994.967712	634.833313	117.464928	-726.552551	682.046448	84.633385	-791.050415	625.971680	62.755913	-631.438538	699.200745	62.209858	-603.514038	869.694153	40.941307	-816.687439	793.829956	52.324509	-790.835510	0.000000	0.000000	0.000000	0.000000	0.000000	0.000000	0.000000	0.000000	0.000000	
9	0.080000	795.196533	1238.238159	-823.431030	800.085327	1494.635254	-697.867432	800.105347	1334.595337	-602.492310	640.016602	1450.229980	-677.588318	974.577759	1433.988281	-680.277344	722.413879	1020.947693	-888.656860	810.049805	1028.233887	-886.126221	645.711853	993.107422	-657.910583	900.651550	986.366577	-649.172729	928.346375	705.721680	-717.049683	923.347351	850.195557	-669.045227	628.986511	741.920288	-591.655884	586.014465	799.036133	-643.725281	658.507813	850.654785	-620.594971	612.140808	522.218018	-609.388489	648.816101	411.774109	-578.519348	626.467773	342.597809	-617.347778	648.771851	289.681854	-619.960999	906.943298	502.752319	-813.628845	849.978210	387.036316	-803.069580	879.348145	323.741455	-834.194580	835.403015	273.039429	-840.006409	857.551147	90.571144	-937.728516	817.460327	55.545189	-1001.951477	634.878357	113.901596	-710.169434	681.771423	78.641968	-773.616821	626.389954	63.103432	-613.122681	699.622742	63.610855	-585.537964	869.470642	40.964432	-823.842102	793.668579	52.236656	-798.036072	0.000000	0.000000	0.000000	0.000000	0.000000	0.000000	0.000000	0.000000	0.000000	
